<svg xmlns="http://www.w3.org/2000/svg" xmlns:xlink="http://www.w3.org/1999/xlink" version="1.1" x="0px" y="0px" 
viewBox="0 0 100 125" enable-background="new 0 0 100 100" xml:space="preserve"><g>
  <path stroke="white"
    d="M74.504,93.814c0.011-0.027,0.02-0.055,0.028-0.083c0.01-0.026,0.02-0.053,0.025-0.082   c0.006-0.025,0.008-0.051,0.011-0.076c0.005-0.033,0.011-0.065,0.011-0.097c0-0.008,0.002-0.014,0.002-0.021   c0-0.019-0.004-0.037-0.006-0.056c-0.002-0.032-0.004-0.063-0.01-0.096c-0.004-0.027-0.013-0.054-0.02-0.08   c-0.007-0.028-0.014-0.057-0.025-0.083c-0.01-0.026-0.022-0.051-0.035-0.075c-0.012-0.026-0.025-0.052-0.041-0.078   c-0.015-0.023-0.031-0.044-0.049-0.066c-0.018-0.023-0.035-0.046-0.056-0.067c-0.021-0.023-0.044-0.042-0.067-0.063   c-0.016-0.012-0.026-0.026-0.043-0.04L58.778,81.166v-7.462v-6.599c2.433-2.319,3.951-5.586,3.951-9.204s-1.519-6.885-3.951-9.206   v-6.597V22.346c0-0.314,0.087-3.073,3.072-3.073c1.671,0,4.83-1.009,4.83-4.829c0-0.485-0.395-0.877-0.879-0.877   s-0.878,0.392-0.878,0.877c0,2.957-2.761,3.07-3.073,3.073c-3.221,0-4.439,2.245-4.743,3.95h-2.364   c-0.303-1.705-1.521-3.95-4.743-3.95c-0.485,0-0.878,0.394-0.878,0.877c0,0.485,0.393,0.878,0.878,0.878   c2.955,0,3.069,2.759,3.072,3.077v12.077C52.237,33.735,51.166,33.32,50,33.32c-2.662,0-4.829,2.166-4.829,4.829   c0,1.166,0.417,2.237,1.107,3.073h-4.18c-0.485,0-0.877,0.392-0.877,0.877v6.597c-2.433,2.32-3.951,5.588-3.951,9.206   s1.519,6.885,3.951,9.204v6.599v7.462L25.771,92.753c-0.017,0.013-0.028,0.027-0.044,0.04c-0.022,0.021-0.046,0.04-0.066,0.063   c-0.021,0.021-0.038,0.044-0.056,0.067c-0.018,0.022-0.034,0.043-0.049,0.066c-0.016,0.025-0.029,0.051-0.041,0.078   c-0.014,0.024-0.025,0.049-0.034,0.075c-0.013,0.026-0.02,0.055-0.026,0.083c-0.007,0.026-0.016,0.053-0.02,0.08   c-0.006,0.032-0.008,0.064-0.01,0.096c0,0.019-0.006,0.037-0.006,0.056c0,0.006,0.002,0.013,0.002,0.021   c0,0.032,0.006,0.063,0.011,0.097c0.003,0.025,0.005,0.051,0.011,0.076c0.006,0.028,0.017,0.055,0.024,0.082   c0.01,0.028,0.019,0.056,0.029,0.083c0.012,0.023,0.024,0.044,0.038,0.066c0.015,0.029,0.03,0.057,0.051,0.085   c0.003,0.005,0.006,0.011,0.01,0.017c0.009,0.011,0.021,0.021,0.027,0.031c0.029,0.034,0.061,0.066,0.092,0.096   c0.019,0.017,0.036,0.032,0.057,0.046c0.031,0.024,0.066,0.046,0.102,0.066c0.021,0.01,0.038,0.021,0.06,0.032   c0.039,0.019,0.083,0.033,0.129,0.044c0.015,0.005,0.03,0.012,0.048,0.015c0.061,0.014,0.123,0.022,0.189,0.022h19.749   c0,0,0,0,0.003,0l0,0h7.9l0,0c0.003,0,0.003,0,0.003,0h19.749c0.066,0,0.129-0.008,0.189-0.022c0.018-0.003,0.031-0.01,0.048-0.014   c0.045-0.013,0.089-0.027,0.129-0.047c0.021-0.009,0.039-0.02,0.059-0.03c0.036-0.02,0.071-0.042,0.104-0.066   c0.019-0.016,0.035-0.029,0.053-0.045c0.035-0.03,0.064-0.062,0.093-0.097c0.008-0.012,0.019-0.02,0.028-0.031   c0.006-0.005,0.008-0.011,0.01-0.017c0.021-0.028,0.036-0.056,0.052-0.085C74.479,93.858,74.493,93.837,74.504,93.814z    M70.019,92.578L60.8,86.432h2.074l8.195,6.146H70.019z M62.216,92.578l-6.146-6.146h1.565l9.218,6.146H62.216z M54.493,92.578   l-3.072-6.146h2.167l6.145,6.146H54.493z M40.268,92.578l6.146-6.146h2.166l-3.071,6.146H40.268z M33.146,92.578l9.218-6.146h1.565   l-6.146,6.146H33.146z M28.931,92.578l8.194-6.146H39.2l-9.219,6.146H28.931z M42.976,74.581h14.049v9.553l-6.633-3.314   c-0.016-0.008-0.029-0.011-0.047-0.018c-0.031-0.014-0.062-0.027-0.096-0.037c-0.025-0.008-0.05-0.013-0.076-0.018   c-0.03-0.007-0.059-0.012-0.088-0.016c-0.028-0.003-0.057-0.003-0.085-0.003s-0.057,0-0.085,0.003   c-0.029,0.004-0.059,0.009-0.087,0.016c-0.027,0.004-0.053,0.01-0.077,0.018c-0.033,0.01-0.064,0.023-0.094,0.036   c-0.018,0.008-0.034,0.01-0.05,0.019l-6.632,3.314V74.581z M50,70.631c1.059,0,2.089-0.132,3.072-0.378v2.572h-6.145v-2.572   C47.911,70.499,48.941,70.631,50,70.631z M50,82.585l4.181,2.091h-8.361L50,82.585z M50,87.519l2.53,5.059H47.47L50,87.519z    M60.533,84.676h-1.755V83.36L60.533,84.676z M57.024,72.825h-2.195v-3.072c0-0.026-0.006-0.049-0.008-0.073   c0.775-0.318,1.512-0.71,2.203-1.169V72.825z M54.829,27.175h2.195v14.047h-2.195V27.175z M57.024,25.419h-2.195v-2.196h2.195   V25.419z M46.928,38.149c0-1.695,1.379-3.073,3.072-3.073s3.072,1.378,3.072,3.073c0,1.693-1.379,3.073-3.072,3.073   S46.928,39.842,46.928,38.149z M42.976,42.976h14.049v4.316c-2.016-1.339-4.43-2.121-7.024-2.121c-2.594,0-5.009,0.782-7.024,2.121   V42.976z M39.026,57.901c0-6.051,4.923-10.974,10.974-10.974s10.974,4.923,10.974,10.974c0,6.051-4.923,10.974-10.974,10.974   S39.026,63.952,39.026,57.901z M45.179,69.68c-0.002,0.024-0.008,0.047-0.008,0.073v3.072h-2.195v-4.314   C43.667,68.969,44.403,69.361,45.179,69.68z M41.222,84.676h-1.756l1.756-1.316V84.676z"/>
    <path stroke="white" d="M50,62.729c2.662,0,4.829-2.166,4.829-4.828S52.662,53.073,50,53.073s-4.829,2.166-4.829,4.829S47.338,62.729,50,62.729z    M50,54.829c1.693,0,3.072,1.377,3.072,3.073c0,1.693-1.379,3.072-3.072,3.072s-3.072-1.379-3.072-3.072   C46.928,56.206,48.307,54.829,50,54.829z"/>
    <path stroke="white" d="M57.901,15.322c0.485,0,0.877-0.392,0.877-0.877c0-0.314,0.087-3.072,3.072-3.072c1.671,0,4.83-1.008,4.83-4.829   c0-0.485-0.395-0.877-0.879-0.877s-0.878,0.392-0.878,0.877c0,2.957-2.761,3.07-3.073,3.073c-3.818,0-4.826,3.159-4.826,4.828   C57.024,14.931,57.416,15.322,57.901,15.322z"/>
    </g>
</svg>